<?xml version="1.0" encoding="utf-8"?>
<!-- Generator: Adobe Illustrator 17.0.0, SVG Export Plug-In . SVG Version: 6.00 Build 0)  -->
<!DOCTYPE svg PUBLIC "-//W3C//DTD SVG 1.1 Tiny//EN" "http://www.w3.org/Graphics/SVG/1.1/DTD/svg11-tiny.dtd">
<svg version="1.1" baseProfile="tiny" xmlns="http://www.w3.org/2000/svg" xmlns:xlink="http://www.w3.org/1999/xlink" x="0px"
	 y="0px" width="81.271px" height="66.969px" viewBox="0 0 81.271 66.969" xml:space="preserve">
<g id="Layer_1" display="none">
	<polygon display="inline" points="0.047,0 81.047,0 63.047,67.193 40.547,58.279 16.38,67.193 	"/>
</g>
<g id="Layer_1_copy">
	<polygon fill="#0036BC" points="0.047,0 81.047,0 63.047,67.193 40.547,58.279 16.38,67.193 	"/>
</g>
<g id="Layer_2" display="none">
	<rect x="8.788" y="0" display="inline" fill="#0036BC" width="63.517" height="67.193"/>
</g>
<g id="Layer_3" display="none">
	<polygon display="inline" fill="#231F20" points="40.38,0 0.047,67.193 81.047,67.193 	"/>
</g>
<g id="Layer_4" display="none">
	<rect x="0.047" y="0" display="inline" fill="#231F20" width="81" height="57.606"/>
	<rect x="31.333" y="57.606" display="inline" fill="#231F20" width="18.427" height="9.587"/>
</g>
<g id="Layer_5" display="none">
	<ellipse display="inline" fill="#231F20" cx="40.636" cy="33.709" rx="40.636" ry="33.26"/>
</g>
<g id="Layer_6" display="none">
	<polygon display="inline" fill="#231F20" points="0.047,67.193 0.047,0 55.365,0 81.047,67.193 	"/>
</g>
<g id="Layer_7" display="none">
	<rect x="0.047" y="0" display="inline" fill="#231F20" width="39.71" height="67.193"/>
	<ellipse display="inline" fill="#231F20" cx="40.547" cy="33.597" rx="40.5" ry="33.597"/>
</g>
<g id="Layer_8" display="none">
	<rect x="0.047" y="0" display="inline" fill="#231F20" width="81" height="49.313"/>
	<rect x="0.047" y="30.708" display="inline" fill="#231F20" width="64.059" height="26.001"/>
	<rect x="0.047" y="53.348" display="inline" fill="#231F20" width="81" height="13.846"/>
</g>
<g id="Layer_9" display="none">
	<rect x="0.047" y="0" display="inline" fill="#231F20" width="67.197" height="67.193"/>
	<ellipse display="inline" fill="#231F20" cx="67.197" cy="27.852" rx="13.85" ry="27.852"/>
	<polygon display="inline" fill="#231F20" points="0.047,0 81.047,67.193 0.047,67.193 	"/>
</g>
<g id="Layer_10" display="none">
	<rect x="0.047" y="0" display="inline" fill="#231F20" width="81" height="49.313"/>
	<rect x="0.047" y="30.708" display="inline" fill="#231F20" width="64.059" height="36.485"/>
</g>
<g id="Layer_11" display="none">
	<rect x="0.047" y="0" display="inline" fill="#231F20" width="81" height="49.313"/>
	<ellipse display="inline" fill="#231F20" cx="40.547" cy="48.054" rx="40.5" ry="19.139"/>
</g>
<g id="Layer_12" display="none">
	<rect x="0.047" y="0" display="inline" fill="#C6A500" width="40.5" height="67.193"/>
	<rect x="0.047" y="62.762" display="inline" fill="#C6A500" width="81" height="4.431"/>
</g>
<g id="Layer_13" display="none">
	<polygon display="inline" fill="#231F20" points="0.047,0 40.38,36.193 40.38,67.193 81.047,67.193 81.047,0 	"/>
</g>
<g id="Layer_14" display="none">
	<rect x="30.26" y="0" display="inline" fill="#C9003A" width="20.846" height="67.193"/>
</g>
<g id="Layer_15" display="none">
	<polygon display="inline" fill="#231F20" points="0.047,0 40.683,67.193 81.047,0 	"/>
</g>
<g id="Layer_16" display="none">
	<path display="inline" fill="#C6A500" d="M72.306,66.969c-21.726,0-63.517,0.224-63.517-33.485C8.788,0,50.58,0,72.306,0V66.969z"
		/>
</g>
</svg>
